<svg xmlns="http://www.w3.org/2000/svg" xmlns:xlink="http://www.w3.org/1999/xlink" contentStyleType="text/css" data-diagram-type="CLASS" height="1004px" preserveAspectRatio="none" style="width:1840px;height:1004px;background:#FFFFFF;" version="1.1" viewBox="0 0 1840 1004" width="1840px" zoomAndPan="magnify"><defs/><g><!--class Inventory--><g class="entity" data-entity="Inventory" data-source-line="3" data-uid="ent0002" id="entity_Inventory"><rect fill="#F1F1F1" height="390.2344" rx="2.5" ry="2.5" style="stroke:#181818;stroke-width:0.5;" width="390.376" x="450.5" y="7"/><ellipse cx="608.0034" cy="23" fill="#ADD1B2" rx="11" ry="11" style="stroke:#181818;stroke-width:1;"/><path d="M610.9722,28.6406 Q610.394,28.9375 609.7534,29.0781 Q609.1128,29.2344 608.4097,29.2344 Q605.9097,29.2344 604.5815,27.5938 Q603.269,25.9375 603.269,22.8125 Q603.269,19.6875 604.5815,18.0313 Q605.9097,16.375 608.4097,16.375 Q609.1128,16.375 609.7534,16.5313 Q610.4097,16.6875 610.9722,16.9844 L610.9722,19.7031 Q610.3472,19.125 609.7534,18.8594 Q609.1597,18.5781 608.5347,18.5781 Q607.1909,18.5781 606.5034,19.6563 Q605.8159,20.7188 605.8159,22.8125 Q605.8159,24.9063 606.5034,25.9844 Q607.1909,27.0469 608.5347,27.0469 Q609.1597,27.0469 609.7534,26.7813 Q610.3472,26.5 610.9722,25.9219 L610.9722,28.6406 Z " fill="#000000"/><text fill="#000000" font-family="sans-serif" font-size="14" lengthAdjust="spacing" textLength="66.8691" x="628.5034" y="27.8467">Inventory</text><line style="stroke:#181818;stroke-width:0.5;" x1="451.5" x2="839.876" y1="39" y2="39"/><text fill="#000000" font-family="sans-serif" font-size="14" lengthAdjust="spacing" textLength="174.9111" x="456.5" y="55.9951">-vehicles : List&lt;Vehicle&gt;</text><text fill="#000000" font-family="sans-serif" font-size="14" lengthAdjust="spacing" textLength="132.2412" x="456.5" y="72.292">-sales : List&lt;Sale&gt;</text><text fill="#000000" font-family="sans-serif" font-size="14" lengthAdjust="spacing" text-decoration="underline" textLength="120.1758" x="456.5" y="88.5889">-DATA_DIR : Path</text><text fill="#000000" font-family="sans-serif" font-size="14" lengthAdjust="spacing" text-decoration="underline" textLength="167.2275" x="456.5" y="104.8857">-INVENTORY_FILE : Path</text><text fill="#000000" font-family="sans-serif" font-size="14" lengthAdjust="spacing" text-decoration="underline" textLength="129.876" x="456.5" y="121.1826">-SALES_FILE : Path</text><line style="stroke:#181818;stroke-width:0.5;" x1="451.5" x2="839.876" y1="128.4844" y2="128.4844"/><text fill="#000000" font-family="sans-serif" font-size="14" lengthAdjust="spacing" textLength="212.0098" x="456.5" y="145.4795">+addVehicle(v: Vehicle) : void</text><text fill="#000000" font-family="sans-serif" font-size="14" lengthAdjust="spacing" textLength="239.1279" x="456.5" y="161.7764">+removeVehicle(v: Vehicle) : void</text><text fill="#000000" font-family="sans-serif" font-size="14" lengthAdjust="spacing" textLength="234.9854" x="456.5" y="178.0732">+updateVehicle(v: Vehicle) : void</text><text fill="#000000" font-family="sans-serif" font-size="14" lengthAdjust="spacing" textLength="184.9531" x="456.5" y="194.3701">+viewAll() : List&lt;Vehicle&gt;</text><text fill="#000000" font-family="sans-serif" font-size="14" lengthAdjust="spacing" textLength="327.3252" x="456.5" y="210.667">+searchByMake(make: String) : List&lt;Vehicle&gt;</text><text fill="#000000" font-family="sans-serif" font-size="14" lengthAdjust="spacing" textLength="290.2129" x="456.5" y="226.9639">+searchByYear(year: int) : List&lt;Vehicle&gt;</text><text fill="#000000" font-family="sans-serif" font-size="14" lengthAdjust="spacing" textLength="370.9385" x="456.5" y="243.2607">+filterByMaxPrice(maxPrice: double) : List&lt;Vehicle&gt;</text><text fill="#000000" font-family="sans-serif" font-size="14" lengthAdjust="spacing" textLength="378.376" x="456.5" y="259.5576">+filterByStatus(status: VehicleStatus) : List&lt;Vehicle&gt;</text><text fill="#000000" font-family="sans-serif" font-size="14" lengthAdjust="spacing" textLength="328.3164" x="456.5" y="275.8545">+filterByType(type: Class&lt;?&gt;) : List&lt;Vehicle&gt;</text><text fill="#000000" font-family="sans-serif" font-size="14" lengthAdjust="spacing" textLength="208.6533" x="456.5" y="292.1514">+recordSale(sale: Sale) : void</text><text fill="#000000" font-family="sans-serif" font-size="14" lengthAdjust="spacing" textLength="174.4258" x="456.5" y="308.4482">+getSales() : List&lt;Sale&gt;</text><text fill="#000000" font-family="sans-serif" font-size="14" lengthAdjust="spacing" textLength="140.2324" x="456.5" y="324.7451">+saveToFile() : void</text><text fill="#000000" font-family="sans-serif" font-size="14" lengthAdjust="spacing" textLength="208.6328" x="456.5" y="341.042">+findById(id: String) : Vehicle</text><text fill="#000000" font-family="sans-serif" font-size="14" lengthAdjust="spacing" textLength="177.4951" x="456.5" y="357.3389">+saveSalesToFile() : void</text><text fill="#000000" font-family="sans-serif" font-size="14" lengthAdjust="spacing" textLength="193.5391" x="456.5" y="373.6357">+loadSalesFromFile() : void</text><text fill="#000000" font-family="sans-serif" font-size="14" lengthAdjust="spacing" textLength="156.2764" x="456.5" y="389.9326">+loadFromFile() : void</text></g><!--class Sale--><g class="entity" data-entity="Sale" data-source-line="27" data-uid="ent0003" id="entity_Sale"><rect fill="#F1F1F1" height="276.1563" rx="2.5" ry="2.5" style="stroke:#181818;stroke-width:0.5;" width="593.0205" x="7" y="494.5"/><ellipse cx="284.2759" cy="510.5" fill="#ADD1B2" rx="11" ry="11" style="stroke:#181818;stroke-width:1;"/><path d="M287.2446,516.1406 Q286.6665,516.4375 286.0259,516.5781 Q285.3853,516.7344 284.6821,516.7344 Q282.1821,516.7344 280.854,515.0938 Q279.5415,513.4375 279.5415,510.3125 Q279.5415,507.1875 280.854,505.5313 Q282.1821,503.875 284.6821,503.875 Q285.3853,503.875 286.0259,504.0313 Q286.6821,504.1875 287.2446,504.4844 L287.2446,507.2031 Q286.6196,506.625 286.0259,506.3594 Q285.4321,506.0781 284.8071,506.0781 Q283.4634,506.0781 282.7759,507.1563 Q282.0884,508.2188 282.0884,510.3125 Q282.0884,512.4063 282.7759,513.4844 Q283.4634,514.5469 284.8071,514.5469 Q285.4321,514.5469 286.0259,514.2813 Q286.6196,514 287.2446,513.4219 L287.2446,516.1406 Z " fill="#000000"/><text fill="#000000" font-family="sans-serif" font-size="14" lengthAdjust="spacing" textLength="29.9688" x="304.7759" y="515.3467">Sale</text><line style="stroke:#181818;stroke-width:0.5;" x1="8" x2="599.0205" y1="526.5" y2="526.5"/><text fill="#000000" font-family="sans-serif" font-size="14" lengthAdjust="spacing" textLength="101.8418" x="13" y="543.4951">-saleId : String</text><text fill="#000000" font-family="sans-serif" font-size="14" lengthAdjust="spacing" textLength="150.5" x="13" y="559.792">-saleDate : LocalDate</text><text fill="#000000" font-family="sans-serif" font-size="14" lengthAdjust="spacing" textLength="132.7949" x="13" y="576.0889">-totalPrice : double</text><text fill="#000000" font-family="sans-serif" font-size="14" lengthAdjust="spacing" textLength="119.6836" x="13" y="592.3857">-vehicle : Vehicle</text><text fill="#000000" font-family="sans-serif" font-size="14" lengthAdjust="spacing" textLength="167.6787" x="13" y="608.6826">-customerName : String</text><line style="stroke:#181818;stroke-width:0.5;" x1="8" x2="599.0205" y1="615.9844" y2="615.9844"/><text fill="#000000" font-family="sans-serif" font-size="14" lengthAdjust="spacing" textLength="581.0205" x="13" y="632.9795">+Sale(saleId: String, saleDate: LocalDate, vehicle: Vehicle, customerName: String)</text><text fill="#000000" font-family="sans-serif" font-size="14" lengthAdjust="spacing" textLength="144.0264" x="13" y="649.2764">+getSaleId() : String</text><text fill="#000000" font-family="sans-serif" font-size="14" lengthAdjust="spacing" textLength="192.6846" x="13" y="665.5732">+getSaleDate() : LocalDate</text><text fill="#000000" font-family="sans-serif" font-size="14" lengthAdjust="spacing" textLength="176.4492" x="13" y="681.8701">+getTotalPrice() : double</text><text fill="#000000" font-family="sans-serif" font-size="14" lengthAdjust="spacing" textLength="161.5674" x="13" y="698.167">+getVehicle() : Vehicle</text><text fill="#000000" font-family="sans-serif" font-size="14" lengthAdjust="spacing" textLength="210.3486" x="13" y="714.4639">+getCustomerName() : String</text><text fill="#000000" font-family="sans-serif" font-size="14" lengthAdjust="spacing" textLength="141.1416" x="13" y="730.7607">+recordSale() : void</text><text fill="#000000" font-family="sans-serif" font-size="14" lengthAdjust="spacing" textLength="179.5459" x="13" y="747.0576">+getSaleDetails() : String</text><text fill="#000000" font-family="sans-serif" font-size="14" lengthAdjust="spacing" textLength="182.3691" x="13" y="763.3545">+calculateTotal() : double</text></g><!--class Vehicle--><g class="entity" data-entity="Vehicle" data-source-line="44" data-uid="ent0004" id="entity_Vehicle"><rect fill="#F1F1F1" height="317.0156" rx="2.5" ry="2.5" style="stroke:#181818;stroke-width:0.5;" width="570.0381" x="702.5" y="474"/><ellipse cx="953.104" cy="494.1328" fill="#A9DCDF" rx="11" ry="11" style="stroke:#181818;stroke-width:1;"/><path d="M953.2134,489.4766 L952.0571,494.5547 L954.3853,494.5547 L953.2134,489.4766 Z M951.729,487.2422 L954.7134,487.2422 L958.0728,499.6328 L955.6196,499.6328 L954.854,496.5703 L951.5728,496.5703 L950.8228,499.6328 L948.3853,499.6328 L951.729,487.2422 Z " fill="#000000"/><text fill="#000000" font-family="sans-serif" font-size="12" font-style="italic" lengthAdjust="spacing" textLength="64.3301" x="971.604" y="490.1387">&#171;abstract&#187;</text><text fill="#000000" font-family="sans-serif" font-size="14" font-style="italic" lengthAdjust="spacing" textLength="51.1533" x="978.1924" y="505.9639">Vehicle</text><line style="stroke:#181818;stroke-width:0.5;" x1="703.5" x2="1271.5381" y1="514.2656" y2="514.2656"/><text fill="#000000" font-family="sans-serif" font-size="14" lengthAdjust="spacing" textLength="123.3271" x="708.5" y="531.2607">-vehicleId : String</text><text fill="#000000" font-family="sans-serif" font-size="14" lengthAdjust="spacing" textLength="99.3877" x="708.5" y="547.5576">-make : String</text><text fill="#000000" font-family="sans-serif" font-size="14" lengthAdjust="spacing" textLength="104.043" x="708.5" y="563.8545">-model : String</text><text fill="#000000" font-family="sans-serif" font-size="14" lengthAdjust="spacing" textLength="68.1543" x="708.5" y="580.1514">-year : int</text><text fill="#000000" font-family="sans-serif" font-size="14" lengthAdjust="spacing" textLength="101.2266" x="708.5" y="596.4482">-price : double</text><text fill="#000000" font-family="sans-serif" font-size="14" lengthAdjust="spacing" textLength="157.4521" x="708.5" y="612.7451">-status : VehicleStatus</text><line style="stroke:#181818;stroke-width:0.5;" x1="703.5" x2="1271.5381" y1="620.0469" y2="620.0469"/><text fill="#000000" font-family="sans-serif" font-size="14" lengthAdjust="spacing" textLength="558.0381" x="708.5" y="637.042">+Vehicle(vehicleId: String, make: String, model: String, year: int, price: double)</text><text fill="#000000" font-family="sans-serif" font-size="14" lengthAdjust="spacing" textLength="165.2109" x="708.5" y="653.3389">+getVehicleId() : String</text><text fill="#000000" font-family="sans-serif" font-size="14" lengthAdjust="spacing" textLength="138.4209" x="708.5" y="669.6357">+getMake() : String</text><text fill="#000000" font-family="sans-serif" font-size="14" lengthAdjust="spacing" textLength="143.0762" x="708.5" y="685.9326">+getModel() : String</text><text fill="#000000" font-family="sans-serif" font-size="14" lengthAdjust="spacing" textLength="109.0127" x="708.5" y="702.2295">+getYear() : int</text><text fill="#000000" font-family="sans-serif" font-size="14" lengthAdjust="spacing" textLength="141.374" x="708.5" y="718.5264">+getPrice() : double</text><text fill="#000000" font-family="sans-serif" font-size="14" lengthAdjust="spacing" textLength="199.6367" x="708.5" y="734.8232">+getStatus() : VehicleStatus</text><text fill="#000000" font-family="sans-serif" font-size="14" lengthAdjust="spacing" textLength="338.3174" x="708.5" y="751.1201">+updateStatus(newStatus: VehicleStatus) : void</text><text fill="#000000" font-family="sans-serif" font-size="14" font-style="italic" lengthAdjust="spacing" textLength="149.5771" x="708.5" y="767.417">+getDetails() : String</text><text fill="#000000" font-family="sans-serif" font-size="14" lengthAdjust="spacing" textLength="133.8887" x="708.5" y="783.7139">+toString() : String</text></g><!--class VehicleStatus--><g class="entity" data-entity="VehicleStatus" data-source-line="63" data-uid="ent0005" id="entity_VehicleStatus"><rect fill="#F1F1F1" height="121.4531" rx="2.5" ry="2.5" style="stroke:#181818;stroke-width:0.5;" width="145.8887" x="1307.5" y="572"/><ellipse cx="1330.6558" cy="592.1328" fill="#EB937F" rx="11" ry="11" style="stroke:#181818;stroke-width:1;"/><path d="M1334.7652,598.1328 L1327.0464,598.1328 L1327.0464,585.7422 L1334.7652,585.7422 L1334.7652,587.8984 L1329.4996,587.8984 L1329.4996,590.5703 L1334.2652,590.5703 L1334.2652,592.7266 L1329.4996,592.7266 L1329.4996,595.9766 L1334.7652,595.9766 L1334.7652,598.1328 Z " fill="#000000"/><text fill="#000000" font-family="sans-serif" font-size="12" font-style="italic" lengthAdjust="spacing" textLength="91.752" x="1348.4746" y="588.1387">&#171;enumeration&#187;</text><text fill="#000000" font-family="sans-serif" font-size="14" lengthAdjust="spacing" textLength="95.7646" x="1346.4682" y="603.9639">VehicleStatus</text><line style="stroke:#181818;stroke-width:0.5;" x1="1308.5" x2="1452.3887" y1="612.2656" y2="612.2656"/><text fill="#000000" font-family="sans-serif" font-size="14" lengthAdjust="spacing" textLength="76.4873" x="1313.5" y="629.2607">AVAILABLE</text><text fill="#000000" font-family="sans-serif" font-size="14" lengthAdjust="spacing" textLength="38.4863" x="1313.5" y="645.5576">SOLD</text><text fill="#000000" font-family="sans-serif" font-size="14" lengthAdjust="spacing" textLength="63.9912" x="1313.5" y="661.8545">PENDING</text><line style="stroke:#181818;stroke-width:0.5;" x1="1308.5" x2="1452.3887" y1="669.1563" y2="669.1563"/><text fill="#000000" font-family="sans-serif" font-size="14" lengthAdjust="spacing" textLength="133.8887" x="1313.5" y="686.1514">+toString() : String</text></g><!--class Car--><g class="entity" data-entity="Car" data-source-line="70" data-uid="ent0006" id="entity_Car"><rect fill="#F1F1F1" height="145.7813" rx="2.5" ry="2.5" style="stroke:#181818;stroke-width:0.5;" width="781.2959" x="173" y="852"/><ellipse cx="547.3428" cy="868" fill="#ADD1B2" rx="11" ry="11" style="stroke:#181818;stroke-width:1;"/><path d="M550.3115,873.6406 Q549.7334,873.9375 549.0928,874.0781 Q548.4521,874.2344 547.749,874.2344 Q545.249,874.2344 543.9209,872.5938 Q542.6084,870.9375 542.6084,867.8125 Q542.6084,864.6875 543.9209,863.0313 Q545.249,861.375 547.749,861.375 Q548.4521,861.375 549.0928,861.5313 Q549.749,861.6875 550.3115,861.9844 L550.3115,864.7031 Q549.6865,864.125 549.0928,863.8594 Q548.499,863.5781 547.874,863.5781 Q546.5303,863.5781 545.8428,864.6563 Q545.1553,865.7188 545.1553,867.8125 Q545.1553,869.9063 545.8428,870.9844 Q546.5303,872.0469 547.874,872.0469 Q548.499,872.0469 549.0928,871.7813 Q549.6865,871.5 550.3115,870.9219 L550.3115,873.6406 Z " fill="#000000"/><text fill="#000000" font-family="sans-serif" font-size="14" lengthAdjust="spacing" textLength="24.1104" x="567.8428" y="872.8467">Car</text><line style="stroke:#181818;stroke-width:0.5;" x1="174" x2="953.2959" y1="884" y2="884"/><text fill="#000000" font-family="sans-serif" font-size="14" lengthAdjust="spacing" textLength="109.2656" x="179" y="900.9951">-numDoors : int</text><text fill="#000000" font-family="sans-serif" font-size="14" lengthAdjust="spacing" textLength="130.2383" x="179" y="917.292">-bodyStyle : String</text><line style="stroke:#181818;stroke-width:0.5;" x1="174" x2="953.2959" y1="924.5938" y2="924.5938"/><text fill="#000000" font-family="sans-serif" font-size="14" lengthAdjust="spacing" textLength="769.2959" x="179" y="941.5889">+Car(vehicleId: String, make: String, model: String, year: int, price: double, numDoors: int, bodyStyle: String)</text><text fill="#000000" font-family="sans-serif" font-size="14" lengthAdjust="spacing" textLength="151.457" x="179" y="957.8857">+getNumDoors() : int</text><text fill="#000000" font-family="sans-serif" font-size="14" lengthAdjust="spacing" textLength="171.5479" x="179" y="974.1826">+getBodyStyle() : String</text><text fill="#000000" font-family="sans-serif" font-size="14" lengthAdjust="spacing" textLength="149.5771" x="179" y="990.4795">+getDetails() : String</text></g><!--class Truck--><g class="entity" data-entity="Truck" data-source-line="79" data-uid="ent0007" id="entity_Truck"><rect fill="#F1F1F1" height="145.7813" rx="2.5" ry="2.5" style="stroke:#181818;stroke-width:0.5;" width="844.4941" x="989.5" y="852"/><ellipse cx="1388.0044" cy="868" fill="#ADD1B2" rx="11" ry="11" style="stroke:#181818;stroke-width:1;"/><path d="M1390.9731,873.6406 Q1390.395,873.9375 1389.7544,874.0781 Q1389.1138,874.2344 1388.4106,874.2344 Q1385.9106,874.2344 1384.5825,872.5938 Q1383.27,870.9375 1383.27,867.8125 Q1383.27,864.6875 1384.5825,863.0313 Q1385.9106,861.375 1388.4106,861.375 Q1389.1138,861.375 1389.7544,861.5313 Q1390.4106,861.6875 1390.9731,861.9844 L1390.9731,864.7031 Q1390.3481,864.125 1389.7544,863.8594 Q1389.1606,863.5781 1388.5356,863.5781 Q1387.1919,863.5781 1386.5044,864.6563 Q1385.8169,865.7188 1385.8169,867.8125 Q1385.8169,869.9063 1386.5044,870.9844 Q1387.1919,872.0469 1388.5356,872.0469 Q1389.1606,872.0469 1389.7544,871.7813 Q1390.3481,871.5 1390.9731,870.9219 L1390.9731,873.6406 Z " fill="#000000"/><text fill="#000000" font-family="sans-serif" font-size="14" lengthAdjust="spacing" textLength="38.9854" x="1408.5044" y="872.8467">Truck</text><line style="stroke:#181818;stroke-width:0.5;" x1="990.5" x2="1832.9941" y1="884" y2="884"/><text fill="#000000" font-family="sans-serif" font-size="14" lengthAdjust="spacing" textLength="120.7773" x="995.5" y="900.9951">-cabStyle : String</text><text fill="#000000" font-family="sans-serif" font-size="14" lengthAdjust="spacing" textLength="167.0498" x="995.5" y="917.292">-cargoCapacity : double</text><line style="stroke:#181818;stroke-width:0.5;" x1="990.5" x2="1832.9941" y1="924.5938" y2="924.5938"/><text fill="#000000" font-family="sans-serif" font-size="14" lengthAdjust="spacing" textLength="832.4941" x="995.5" y="941.5889">+Truck(vehicleId: String, make: String, model: String, year: int, price: double, cabStyle: String, cargoCapacity: double)</text><text fill="#000000" font-family="sans-serif" font-size="14" lengthAdjust="spacing" textLength="163.4473" x="995.5" y="957.8857">+getCabStyle() : String</text><text fill="#000000" font-family="sans-serif" font-size="14" lengthAdjust="spacing" textLength="209.7197" x="995.5" y="974.1826">+getCargoCapacity() : double</text><text fill="#000000" font-family="sans-serif" font-size="14" lengthAdjust="spacing" textLength="149.5771" x="995.5" y="990.4795">+getDetails() : String</text></g><!--reverse link Inventory to Sale--><g class="link" data-entity-1="Inventory" data-entity-2="Sale" data-source-line="89" data-uid="lnk8" id="link_Inventory_Sale"><path codeLine="89" d="M483.0234,406.5682 C456.8634,439.3382 437.69,463.37 413,494.3" fill="none" id="Inventory-backto-Sale" style="stroke:#181818;stroke-width:1;"/><polygon fill="none" points="490.51,397.19,483.6406,399.3836,483.0234,406.5682,489.8928,404.3746,490.51,397.19" style="stroke:#181818;stroke-width:1;"/><polygon fill="#000000" points="465.3809,439.4743,473.3204,434.2382,468.7264,430.5715,465.3809,439.4743" style="stroke:#000000;stroke-width:1;"/><text fill="#000000" font-family="sans-serif" font-size="13" lengthAdjust="spacing" textLength="39.8569" x="477.5" y="440.0669">tracks</text></g><!--reverse link Inventory to Vehicle--><g class="link" data-entity-1="Inventory" data-entity-2="Vehicle" data-source-line="90" data-uid="lnk9" id="link_Inventory_Vehicle"><path codeLine="90" d="M807.9748,406.5697 C828.4748,432.2597 841.8,448.95 861.73,473.92" fill="none" id="Inventory-backto-Vehicle" style="stroke:#181818;stroke-width:1;"/><polygon fill="none" points="800.49,397.19,801.1058,404.3748,807.9748,406.5697,807.3589,399.3849,800.49,397.19" style="stroke:#181818;stroke-width:1;"/><polygon fill="#000000" points="844.6191,439.4743,841.2736,430.5715,836.6796,434.2382,844.6191,439.4743" style="stroke:#000000;stroke-width:1;"/><text fill="#000000" font-family="sans-serif" font-size="13" lengthAdjust="spacing" textLength="59.8584" x="850.5" y="440.0669">manages</text></g><!--link Sale to Vehicle--><g class="link" data-entity-1="Sale" data-entity-2="Vehicle" data-source-line="91" data-uid="lnk10" id="link_Sale_Vehicle"><path codeLine="91" d="M600.03,632.5 C634.04,632.5 662.65,632.5 696.5,632.5" fill="none" id="Sale-to-Vehicle" style="stroke:#181818;stroke-width:1;"/><polygon fill="#181818" points="702.5,632.5,693.5,628.5,697.5,632.5,693.5,636.5,702.5,632.5" style="stroke:#181818;stroke-width:1;"/><polygon fill="#000000" points="627.25,621.0664,618.2049,618.1275,618.2049,624.0053,627.25,621.0664" style="stroke:#000000;stroke-width:1;"/><text fill="#000000" font-family="sans-serif" font-size="13" lengthAdjust="spacing" textLength="53.5742" x="631.25" y="625.5669">involves</text></g><!--link Vehicle to VehicleStatus--><!--reverse link Vehicle to Car--><g class="link" data-entity-1="Vehicle" data-entity-2="Car" data-source-line="94" data-uid="lnk13" id="link_Vehicle_Car"><path codeLine="94" d="M742.6601,801.2525 C711.6101,822.5225 695.92,833.27 668.6,851.99" fill="none" id="Vehicle-backto-Car" style="stroke:#181818;stroke-width:1;"/><polygon fill="none" points="757.51,791.08,739.2693,796.3026,746.0509,806.2025,757.51,791.08" style="stroke:#181818;stroke-width:1;"/></g><!--reverse link Vehicle to Truck--><g class="link" data-entity-1="Vehicle" data-entity-2="Truck" data-source-line="95" data-uid="lnk15" id="link_Vehicle_Truck"><path codeLine="95" d="M1232.3399,801.2525 C1263.3899,822.5225 1279.08,833.27 1306.4,851.99" fill="none" id="Vehicle-backto-Truck" style="stroke:#181818;stroke-width:1;"/><polygon fill="none" points="1217.49,791.08,1228.9491,806.2025,1235.7307,796.3026,1217.49,791.08" style="stroke:#181818;stroke-width:1;"/></g><!--SRC=[hLPBRwCm4BxdL_YsH0tIdgCeA_Be2YcRLYMAL5Mhoi5kOiLWP1kwsMx_-_e13X2dlVG2zhndlfa1SIHv0JdCG4gX496KdEnAYUEKvGdvYy7tmS1mG9nNE9UCdy3R080GLFX0Kee568CL4NAojVUfOGhOuYIm8Ry92IL9ty4YsaJFY_X1YTn3UUWou_LskTxSFJm-tyQhfLSaYLRBfCU-0H2XEegW6eFwE5GI5IF8I72SiGf_8bGM2ChFX2g2NoDAWw4d_niWCEJfONRw1OyuoDHZ319LsNp_iVYZUWSdzHW3aak_x0kX4dDj-iyz9wasRmzZW5Yvis5ULqjK1KiH2FDogLdgnvgRKu43gHvZCDSTCVanzIjmd3AEDEg1xWELEkmLRu-bfebpzPeUKRM05TwmMwAqEpel94UpKum2Wjh5h3qxLMFNfqyPD369MyuoF_kIyzvqlzQi6r_d52FG1E5e2zKqEXsMGghFXY6PXDJ00nfysjFJII04QIaaop1Vmmot7Tm0LytOPJzoNbjEHurbPtZKiUfAryP15NNOTLSpj4MBKIifmzsul0pVPMQOpUZqyL6iUIkMljDMt_YwPO4b95JqjLHWQKbLQ2QaTZGAFBWJaiDKsktM10CcauOndNRNMHzOFRiz2aEOTabwOe4PMNCjBk6sumPwysRYTtkc2U2CRtjnZApZyzMjYP5rwCQ_Xu8NNBENF6JjmaCtUsdeKZIqQ-3N2sReJTQkrbeanw_9jJNam7zha7hNng_qW6JsqgOhz75UPbtJ2dbDn5nzHbXUWnzjetWLpLPBTKxkLWlrkb-k5_7wvqV6RKVD5VAsWPJP1MDSj1fXnv3QjoVQcsMbysLeZvpVckjyNapwkXRi0pbhD3p0U-hjKj_mCZtMoQTmTv6efl8zcyC2faIUkerYbB-m2aq0PzcEyulXcDVodfpdRKLFW_jhyWqyO6gwIXn88O0WMK792y5eSFvpOc5eloHZC0Mwgu-Ynzswxy9KbIA7Uom6HYFaP7-GuRGZGVAAqKg9DCJmwK0GmlblAzsRm87krh0imd_EpC2Ys2N-1m00]--></g></svg>