<svg xmlns="http://www.w3.org/2000/svg" xmlns:xlink="http://www.w3.org/1999/xlink" contentStyleType="text/css" data-diagram-type="CLASS" height="893px" preserveAspectRatio="none" style="width:1674px;height:893px;background:#FFFFFF;" version="1.1" viewBox="0 0 1674 893" width="1674px" zoomAndPan="magnify"><defs/><g><!--class VehicleStatus--><g class="entity" data-entity="VehicleStatus" data-source-line="3" data-uid="ent0002" id="entity_VehicleStatus"><rect fill="#F1F1F1" height="96.8906" rx="2.5" ry="2.5" style="stroke:#181818;stroke-width:0.5;" width="127.7646" x="1141.5" y="534"/><ellipse cx="1156.5" cy="550" fill="#EB937F" rx="11" ry="11" style="stroke:#181818;stroke-width:1;"/><path d="M1160.6094,556 L1152.8906,556 L1152.8906,543.6094 L1160.6094,543.6094 L1160.6094,545.7656 L1155.3438,545.7656 L1155.3438,548.4375 L1160.1094,548.4375 L1160.1094,550.5938 L1155.3438,550.5938 L1155.3438,553.8438 L1160.6094,553.8438 L1160.6094,556 Z " fill="#000000"/><text fill="#000000" font-family="sans-serif" font-size="14" lengthAdjust="spacing" textLength="95.7646" x="1170.5" y="554.8467">VehicleStatus</text><line style="stroke:#181818;stroke-width:0.5;" x1="1142.5" x2="1268.2646" y1="566" y2="566"/><text fill="#000000" font-family="sans-serif" font-size="14" lengthAdjust="spacing" textLength="76.4873" x="1147.5" y="582.9951">AVAILABLE</text><text fill="#000000" font-family="sans-serif" font-size="14" lengthAdjust="spacing" textLength="38.4863" x="1147.5" y="599.292">SOLD</text><text fill="#000000" font-family="sans-serif" font-size="14" lengthAdjust="spacing" textLength="63.9912" x="1147.5" y="615.5889">PENDING</text><line style="stroke:#181818;stroke-width:0.5;" x1="1142.5" x2="1268.2646" y1="622.8906" y2="622.8906"/></g><!--class Vehicle--><g class="entity" data-entity="Vehicle" data-source-line="9" data-uid="ent0003" id="entity_Vehicle"><rect fill="#F1F1F1" height="194.6719" rx="2.5" ry="2.5" style="stroke:#181818;stroke-width:0.5;" width="570.0381" x="536.5" y="485"/><ellipse cx="791.6924" cy="501" fill="#A9DCDF" rx="11" ry="11" style="stroke:#181818;stroke-width:1;"/><path d="M791.8018,496.3438 L790.6455,501.4219 L792.9736,501.4219 L791.8018,496.3438 Z M790.3174,494.1094 L793.3018,494.1094 L796.6611,506.5 L794.208,506.5 L793.4424,503.4375 L790.1611,503.4375 L789.4111,506.5 L786.9736,506.5 L790.3174,494.1094 Z " fill="#000000"/><text fill="#000000" font-family="sans-serif" font-size="14" font-style="italic" lengthAdjust="spacing" textLength="51.1533" x="812.1924" y="505.8467">Vehicle</text><line style="stroke:#181818;stroke-width:0.5;" x1="537.5" x2="1105.5381" y1="517" y2="517"/><text fill="#000000" font-family="sans-serif" font-size="14" lengthAdjust="spacing" textLength="118.877" x="542.5" y="533.9951">-vehicleId: String</text><text fill="#000000" font-family="sans-serif" font-size="14" lengthAdjust="spacing" textLength="94.9375" x="542.5" y="550.292">-make: String</text><text fill="#000000" font-family="sans-serif" font-size="14" lengthAdjust="spacing" textLength="99.5928" x="542.5" y="566.5889">-model: String</text><text fill="#000000" font-family="sans-serif" font-size="14" lengthAdjust="spacing" textLength="63.7041" x="542.5" y="582.8857">-year: int</text><text fill="#000000" font-family="sans-serif" font-size="14" lengthAdjust="spacing" textLength="96.7764" x="542.5" y="599.1826">-price: double</text><line style="stroke:#181818;stroke-width:0.5;" x1="537.5" x2="1105.5381" y1="606.4844" y2="606.4844"/><text fill="#000000" font-family="sans-serif" font-size="14" lengthAdjust="spacing" textLength="558.0381" x="542.5" y="623.4795">+Vehicle(vehicleId: String, make: String, model: String, year: int, price: double)</text><text fill="#000000" font-family="sans-serif" font-size="14" font-style="italic" lengthAdjust="spacing" textLength="145.127" x="542.5" y="639.7764">+getDetails(): String</text><text fill="#000000" font-family="sans-serif" font-size="14" lengthAdjust="spacing" textLength="155.3877" x="542.5" y="656.0732">+updateStatus(): void</text><text fill="#000000" font-family="sans-serif" font-size="14" lengthAdjust="spacing" textLength="195.1865" x="542.5" y="672.3701">+getStatus(): VehicleStatus</text></g><!--class Car--><g class="entity" data-entity="Car" data-source-line="21" data-uid="ent0004" id="entity_Car"><rect fill="#F1F1F1" height="145.7813" rx="2.5" ry="2.5" style="stroke:#181818;stroke-width:0.5;" width="781.2959" x="7" y="741"/><ellipse cx="381.3428" cy="757" fill="#ADD1B2" rx="11" ry="11" style="stroke:#181818;stroke-width:1;"/><path d="M384.3115,762.6406 Q383.7334,762.9375 383.0928,763.0781 Q382.4521,763.2344 381.749,763.2344 Q379.249,763.2344 377.9209,761.5938 Q376.6084,759.9375 376.6084,756.8125 Q376.6084,753.6875 377.9209,752.0313 Q379.249,750.375 381.749,750.375 Q382.4521,750.375 383.0928,750.5313 Q383.749,750.6875 384.3115,750.9844 L384.3115,753.7031 Q383.6865,753.125 383.0928,752.8594 Q382.499,752.5781 381.874,752.5781 Q380.5303,752.5781 379.8428,753.6563 Q379.1553,754.7188 379.1553,756.8125 Q379.1553,758.9063 379.8428,759.9844 Q380.5303,761.0469 381.874,761.0469 Q382.499,761.0469 383.0928,760.7813 Q383.6865,760.5 384.3115,759.9219 L384.3115,762.6406 Z " fill="#000000"/><text fill="#000000" font-family="sans-serif" font-size="14" lengthAdjust="spacing" textLength="24.1104" x="401.8428" y="761.8467">Car</text><line style="stroke:#181818;stroke-width:0.5;" x1="8" x2="787.2959" y1="773" y2="773"/><text fill="#000000" font-family="sans-serif" font-size="14" lengthAdjust="spacing" textLength="104.8154" x="13" y="789.9951">-numDoors: int</text><text fill="#000000" font-family="sans-serif" font-size="14" lengthAdjust="spacing" textLength="125.7881" x="13" y="806.292">-bodyStyle: String</text><line style="stroke:#181818;stroke-width:0.5;" x1="8" x2="787.2959" y1="813.5938" y2="813.5938"/><text fill="#000000" font-family="sans-serif" font-size="14" lengthAdjust="spacing" textLength="769.2959" x="13" y="830.5889">+Car(vehicleId: String, make: String, model: String, year: int, price: double, numDoors: int, bodyStyle: String)</text><text fill="#000000" font-family="sans-serif" font-size="14" lengthAdjust="spacing" textLength="145.127" x="13" y="846.8857">+getDetails(): String</text><text fill="#000000" font-family="sans-serif" font-size="14" lengthAdjust="spacing" textLength="155.3877" x="13" y="863.1826">+updateStatus(): void</text><text fill="#000000" font-family="sans-serif" font-size="14" lengthAdjust="spacing" textLength="195.1865" x="13" y="879.4795">+getStatus(): VehicleStatus</text></g><!--class Truck--><g class="entity" data-entity="Truck" data-source-line="30" data-uid="ent0005" id="entity_Truck"><rect fill="#F1F1F1" height="145.7813" rx="2.5" ry="2.5" style="stroke:#181818;stroke-width:0.5;" width="844.4941" x="823.5" y="741"/><ellipse cx="1222.0044" cy="757" fill="#ADD1B2" rx="11" ry="11" style="stroke:#181818;stroke-width:1;"/><path d="M1224.9731,762.6406 Q1224.395,762.9375 1223.7544,763.0781 Q1223.1138,763.2344 1222.4106,763.2344 Q1219.9106,763.2344 1218.5825,761.5938 Q1217.27,759.9375 1217.27,756.8125 Q1217.27,753.6875 1218.5825,752.0313 Q1219.9106,750.375 1222.4106,750.375 Q1223.1138,750.375 1223.7544,750.5313 Q1224.4106,750.6875 1224.9731,750.9844 L1224.9731,753.7031 Q1224.3481,753.125 1223.7544,752.8594 Q1223.1606,752.5781 1222.5356,752.5781 Q1221.1919,752.5781 1220.5044,753.6563 Q1219.8169,754.7188 1219.8169,756.8125 Q1219.8169,758.9063 1220.5044,759.9844 Q1221.1919,761.0469 1222.5356,761.0469 Q1223.1606,761.0469 1223.7544,760.7813 Q1224.3481,760.5 1224.9731,759.9219 L1224.9731,762.6406 Z " fill="#000000"/><text fill="#000000" font-family="sans-serif" font-size="14" lengthAdjust="spacing" textLength="38.9854" x="1242.5044" y="761.8467">Truck</text><line style="stroke:#181818;stroke-width:0.5;" x1="824.5" x2="1666.9941" y1="773" y2="773"/><text fill="#000000" font-family="sans-serif" font-size="14" lengthAdjust="spacing" textLength="116.3271" x="829.5" y="789.9951">-cabStyle: String</text><text fill="#000000" font-family="sans-serif" font-size="14" lengthAdjust="spacing" textLength="162.5996" x="829.5" y="806.292">-cargoCapacity: double</text><line style="stroke:#181818;stroke-width:0.5;" x1="824.5" x2="1666.9941" y1="813.5938" y2="813.5938"/><text fill="#000000" font-family="sans-serif" font-size="14" lengthAdjust="spacing" textLength="832.4941" x="829.5" y="830.5889">+Truck(vehicleId: String, make: String, model: String, year: int, price: double, cabStyle: String, cargoCapacity: double)</text><text fill="#000000" font-family="sans-serif" font-size="14" lengthAdjust="spacing" textLength="145.127" x="829.5" y="846.8857">+getDetails(): String</text><text fill="#000000" font-family="sans-serif" font-size="14" lengthAdjust="spacing" textLength="155.3877" x="829.5" y="863.1826">+updateStatus(): void</text><text fill="#000000" font-family="sans-serif" font-size="14" lengthAdjust="spacing" textLength="195.1865" x="829.5" y="879.4795">+getStatus(): VehicleStatus</text></g><!--class Customer--><g class="entity" data-entity="Customer" data-source-line="39" data-uid="ent0006" id="entity_Customer"><rect fill="#F1F1F1" height="210.9688" rx="2.5" ry="2.5" style="stroke:#181818;stroke-width:0.5;" width="430.5576" x="83" y="197"/><ellipse cx="260.0269" cy="213" fill="#ADD1B2" rx="11" ry="11" style="stroke:#181818;stroke-width:1;"/><path d="M262.9956,218.6406 Q262.4175,218.9375 261.7769,219.0781 Q261.1362,219.2344 260.4331,219.2344 Q257.9331,219.2344 256.605,217.5938 Q255.2925,215.9375 255.2925,212.8125 Q255.2925,209.6875 256.605,208.0313 Q257.9331,206.375 260.4331,206.375 Q261.1362,206.375 261.7769,206.5313 Q262.4331,206.6875 262.9956,206.9844 L262.9956,209.7031 Q262.3706,209.125 261.7769,208.8594 Q261.1831,208.5781 260.5581,208.5781 Q259.2144,208.5781 258.5269,209.6563 Q257.8394,210.7188 257.8394,212.8125 Q257.8394,214.9063 258.5269,215.9844 Q259.2144,217.0469 260.5581,217.0469 Q261.1831,217.0469 261.7769,216.7813 Q262.3706,216.5 262.9956,215.9219 L262.9956,218.6406 Z " fill="#000000"/><text fill="#000000" font-family="sans-serif" font-size="14" lengthAdjust="spacing" textLength="68.0039" x="280.5269" y="217.8467">Customer</text><line style="stroke:#181818;stroke-width:0.5;" x1="84" x2="512.5576" y1="229" y2="229"/><text fill="#000000" font-family="sans-serif" font-size="14" lengthAdjust="spacing" textLength="134.9414" x="89" y="245.9951">-customerId: String</text><text fill="#000000" font-family="sans-serif" font-size="14" lengthAdjust="spacing" textLength="95.7031" x="89" y="262.292">-name: String</text><text fill="#000000" font-family="sans-serif" font-size="14" lengthAdjust="spacing" textLength="94.6094" x="89" y="278.5889">-email: String</text><line style="stroke:#181818;stroke-width:0.5;" x1="84" x2="512.5576" y1="285.8906" y2="285.8906"/><text fill="#000000" font-family="sans-serif" font-size="14" lengthAdjust="spacing" textLength="418.5576" x="89" y="302.8857">+Customer(customerId: String, name: String, email: String)</text><text fill="#000000" font-family="sans-serif" font-size="14" lengthAdjust="spacing" textLength="177.6113" x="89" y="319.1826">+getCustomerId(): String</text><text fill="#000000" font-family="sans-serif" font-size="14" lengthAdjust="spacing" textLength="137.8945" x="89" y="335.4795">+getName(): String</text><text fill="#000000" font-family="sans-serif" font-size="14" lengthAdjust="spacing" textLength="135.4336" x="89" y="351.7764">+getEmail(): String</text><text fill="#000000" font-family="sans-serif" font-size="14" lengthAdjust="spacing" textLength="115.7461" x="89" y="368.0732">+register(): void</text><text fill="#000000" font-family="sans-serif" font-size="14" lengthAdjust="spacing" textLength="193.2178" x="89" y="384.3701">+getPurchaseHistory(): List</text><text fill="#000000" font-family="sans-serif" font-size="14" lengthAdjust="spacing" textLength="283.9717" x="89" y="400.667">+updateContact(newEmail: String): void</text></g><!--class CustomerDirectory--><g class="entity" data-entity="CustomerDirectory" data-source-line="52" data-uid="ent0007" id="entity_CustomerDirectory"><rect fill="#F1F1F1" height="113.1875" rx="2.5" ry="2.5" style="stroke:#181818;stroke-width:0.5;" width="308.4814" x="144.5" y="7"/><ellipse cx="228.0728" cy="23" fill="#ADD1B2" rx="11" ry="11" style="stroke:#181818;stroke-width:1;"/><path d="M231.0415,28.6406 Q230.4634,28.9375 229.8228,29.0781 Q229.1821,29.2344 228.479,29.2344 Q225.979,29.2344 224.6509,27.5938 Q223.3384,25.9375 223.3384,22.8125 Q223.3384,19.6875 224.6509,18.0313 Q225.979,16.375 228.479,16.375 Q229.1821,16.375 229.8228,16.5313 Q230.479,16.6875 231.0415,16.9844 L231.0415,19.7031 Q230.4165,19.125 229.8228,18.8594 Q229.229,18.5781 228.604,18.5781 Q227.2603,18.5781 226.5728,19.6563 Q225.8853,20.7188 225.8853,22.8125 Q225.8853,24.9063 226.5728,25.9844 Q227.2603,27.0469 228.604,27.0469 Q229.229,27.0469 229.8228,26.7813 Q230.4165,26.5 231.0415,25.9219 L231.0415,28.6406 Z " fill="#000000"/><text fill="#000000" font-family="sans-serif" font-size="14" lengthAdjust="spacing" textLength="132.8359" x="248.5728" y="27.8467">CustomerDirectory</text><line style="stroke:#181818;stroke-width:0.5;" x1="145.5" x2="451.9814" y1="39" y2="39"/><line style="stroke:#181818;stroke-width:0.5;" x1="145.5" x2="451.9814" y1="47" y2="47"/><text fill="#000000" font-family="sans-serif" font-size="14" lengthAdjust="spacing" textLength="240.6729" x="150.5" y="63.9951">+addCustomer(c: Customer): void</text><text fill="#000000" font-family="sans-serif" font-size="14" lengthAdjust="spacing" textLength="267.791" x="150.5" y="80.292">+removeCustomer(c: Customer): void</text><text fill="#000000" font-family="sans-serif" font-size="14" lengthAdjust="spacing" textLength="296.4814" x="150.5" y="96.5889">+searchByName(name: String): Customer</text><text fill="#000000" font-family="sans-serif" font-size="14" lengthAdjust="spacing" textLength="171.9375" x="150.5" y="112.8857">+getAllCustomers(): List</text></g><!--class Sale--><g class="entity" data-entity="Sale" data-source-line="59" data-uid="ent0008" id="entity_Sale"><rect fill="#F1F1F1" height="178.375" rx="2.5" ry="2.5" style="stroke:#181818;stroke-width:0.5;" width="270.3301" x="163.5" y="493.5"/><ellipse cx="279.4307" cy="509.5" fill="#ADD1B2" rx="11" ry="11" style="stroke:#181818;stroke-width:1;"/><path d="M282.3994,515.1406 Q281.8213,515.4375 281.1807,515.5781 Q280.54,515.7344 279.8369,515.7344 Q277.3369,515.7344 276.0088,514.0938 Q274.6963,512.4375 274.6963,509.3125 Q274.6963,506.1875 276.0088,504.5313 Q277.3369,502.875 279.8369,502.875 Q280.54,502.875 281.1807,503.0313 Q281.8369,503.1875 282.3994,503.4844 L282.3994,506.2031 Q281.7744,505.625 281.1807,505.3594 Q280.5869,505.0781 279.9619,505.0781 Q278.6182,505.0781 277.9307,506.1563 Q277.2432,507.2188 277.2432,509.3125 Q277.2432,511.4063 277.9307,512.4844 Q278.6182,513.5469 279.9619,513.5469 Q280.5869,513.5469 281.1807,513.2813 Q281.7744,513 282.3994,512.4219 L282.3994,515.1406 Z " fill="#000000"/><text fill="#000000" font-family="sans-serif" font-size="14" lengthAdjust="spacing" textLength="29.9688" x="299.9307" y="514.3467">Sale</text><line style="stroke:#181818;stroke-width:0.5;" x1="164.5" x2="432.8301" y1="525.5" y2="525.5"/><text fill="#000000" font-family="sans-serif" font-size="14" lengthAdjust="spacing" textLength="97.3916" x="169.5" y="542.4951">-saleId: String</text><text fill="#000000" font-family="sans-serif" font-size="14" lengthAdjust="spacing" textLength="109.5186" x="169.5" y="558.792">-saleDate: Date</text><text fill="#000000" font-family="sans-serif" font-size="14" lengthAdjust="spacing" textLength="128.3447" x="169.5" y="575.0889">-totalPrice: double</text><line style="stroke:#181818;stroke-width:0.5;" x1="164.5" x2="432.8301" y1="582.3906" y2="582.3906"/><text fill="#000000" font-family="sans-serif" font-size="14" lengthAdjust="spacing" textLength="258.3301" x="169.5" y="599.3857">+Sale(saleId: String, saleDate: Date)</text><text fill="#000000" font-family="sans-serif" font-size="14" lengthAdjust="spacing" textLength="136.6914" x="169.5" y="615.6826">+recordSale(): void</text><text fill="#000000" font-family="sans-serif" font-size="14" lengthAdjust="spacing" textLength="175.0957" x="169.5" y="631.9795">+getSaleDetails(): String</text><text fill="#000000" font-family="sans-serif" font-size="14" lengthAdjust="spacing" textLength="177.9189" x="169.5" y="648.2764">+calculateTotal(): double</text><text fill="#000000" font-family="sans-serif" font-size="14" lengthAdjust="spacing" textLength="167.8975" x="169.5" y="664.5732">+getSalesByDate(): List</text></g><!--class Inventory--><g class="entity" data-entity="Inventory" data-source-line="70" data-uid="ent0009" id="entity_Inventory"><rect fill="#F1F1F1" height="145.7813" rx="2.5" ry="2.5" style="stroke:#181818;stroke-width:0.5;" width="311.3115" x="666" y="229.5"/><ellipse cx="783.9712" cy="245.5" fill="#ADD1B2" rx="11" ry="11" style="stroke:#181818;stroke-width:1;"/><path d="M786.9399,251.1406 Q786.3618,251.4375 785.7212,251.5781 Q785.0806,251.7344 784.3774,251.7344 Q781.8774,251.7344 780.5493,250.0938 Q779.2368,248.4375 779.2368,245.3125 Q779.2368,242.1875 780.5493,240.5313 Q781.8774,238.875 784.3774,238.875 Q785.0806,238.875 785.7212,239.0313 Q786.3774,239.1875 786.9399,239.4844 L786.9399,242.2031 Q786.3149,241.625 785.7212,241.3594 Q785.1274,241.0781 784.5024,241.0781 Q783.1587,241.0781 782.4712,242.1563 Q781.7837,243.2188 781.7837,245.3125 Q781.7837,247.4063 782.4712,248.4844 Q783.1587,249.5469 784.5024,249.5469 Q785.1274,249.5469 785.7212,249.2813 Q786.3149,249 786.9399,248.4219 L786.9399,251.1406 Z " fill="#000000"/><text fill="#000000" font-family="sans-serif" font-size="14" lengthAdjust="spacing" textLength="66.8691" x="804.4712" y="250.3467">Inventory</text><line style="stroke:#181818;stroke-width:0.5;" x1="667" x2="976.3115" y1="261.5" y2="261.5"/><line style="stroke:#181818;stroke-width:0.5;" x1="667" x2="976.3115" y1="269.5" y2="269.5"/><text fill="#000000" font-family="sans-serif" font-size="14" lengthAdjust="spacing" textLength="207.5596" x="672" y="286.4951">+addVehicle(v: Vehicle): void</text><text fill="#000000" font-family="sans-serif" font-size="14" lengthAdjust="spacing" textLength="234.6777" x="672" y="302.792">+removeVehicle(v: Vehicle): void</text><text fill="#000000" font-family="sans-serif" font-size="14" lengthAdjust="spacing" textLength="248.2607" x="672" y="319.0889">+searchByMake(make: String): List</text><text fill="#000000" font-family="sans-serif" font-size="14" lengthAdjust="spacing" textLength="299.3115" x="672" y="335.3857">+filterByStatus(status: VehicleStatus): List</text><text fill="#000000" font-family="sans-serif" font-size="14" lengthAdjust="spacing" textLength="230.5352" x="672" y="351.6826">+updateVehicle(v: Vehicle): void</text><text fill="#000000" font-family="sans-serif" font-size="14" lengthAdjust="spacing" textLength="105.8887" x="672" y="367.9795">+viewAll(): List</text></g><!--reverse link Vehicle to Car--><g class="link" data-entity-1="Vehicle" data-entity-2="Car" data-source-line="80" data-uid="lnk10" id="link_Vehicle_Car"><path codeLine="80" d="M627.0819,688.7315 C589.5219,709.0715 566.34,721.61 530.78,740.86" fill="none" id="Vehicle-backto-Car" style="stroke:#181818;stroke-width:1;"/><polygon fill="none" points="642.91,680.16,624.2247,683.4554,629.939,694.0075,642.91,680.16" style="stroke:#181818;stroke-width:1;"/></g><!--reverse link Vehicle to Truck--><g class="link" data-entity-1="Vehicle" data-entity-2="Truck" data-source-line="81" data-uid="lnk11" id="link_Vehicle_Truck"><path codeLine="81" d="M1015.9181,688.7315 C1053.4781,709.0715 1076.66,721.61 1112.22,740.86" fill="none" id="Vehicle-backto-Truck" style="stroke:#181818;stroke-width:1;"/><polygon fill="none" points="1000.09,680.16,1013.061,694.0075,1018.7753,683.4554,1000.09,680.16" style="stroke:#181818;stroke-width:1;"/></g><!--reverse link CustomerDirectory to Customer--><g class="link" data-entity-1="CustomerDirectory" data-entity-2="Customer" data-source-line="84" data-uid="lnk12" id="link_CustomerDirectory_Customer"><path codeLine="84" d="M298.5,132.07 C298.5,155.05 298.5,170.49 298.5,196.98" fill="none" id="CustomerDirectory-backto-Customer" style="stroke:#181818;stroke-width:1;"/><polygon fill="none" points="298.5,120.07,294.5,126.07,298.5,132.07,302.5,126.07,298.5,120.07" style="stroke:#181818;stroke-width:1;"/><polygon fill="#000000" points="303.5,163.5664,306.4389,154.5213,300.5611,154.5213,303.5,163.5664" style="stroke:#000000;stroke-width:1;"/><text fill="#000000" font-family="sans-serif" font-size="13" lengthAdjust="spacing" textLength="59.8584" x="312.5" y="163.0669">manages</text><text fill="#000000" font-family="sans-serif" font-size="13" lengthAdjust="spacing" textLength="8.271" x="289.974" y="140.3424">1</text><text fill="#000000" font-family="sans-serif" font-size="13" lengthAdjust="spacing" textLength="23.0356" x="274.7082" y="186.1059">0..*</text></g><!--link Customer to Sale--><g class="link" data-entity-1="Customer" data-entity-2="Sale" data-source-line="85" data-uid="lnk13" id="link_Customer_Sale"><path codeLine="85" d="M298.5,408.2 C298.5,436.22 298.5,466.21 298.5,493.24" fill="none" id="Customer-Sale" style="stroke:#181818;stroke-width:1;"/><polygon fill="#000000" points="303.5,451.5664,306.4389,442.5213,300.5611,442.5213,303.5,451.5664" style="stroke:#000000;stroke-width:1;"/><text fill="#000000" font-family="sans-serif" font-size="13" lengthAdjust="spacing" textLength="41.7485" x="312.5" y="451.0669">places</text><text fill="#000000" font-family="sans-serif" font-size="13" lengthAdjust="spacing" textLength="8.271" x="290.2552" y="427.878">1</text><text fill="#000000" font-family="sans-serif" font-size="13" lengthAdjust="spacing" textLength="23.0356" x="274.5355" y="482.2839">0..*</text></g><!--link Sale to Vehicle--><g class="link" data-entity-1="Sale" data-entity-2="Vehicle" data-source-line="86" data-uid="lnk14" id="link_Sale_Vehicle"><path codeLine="86" d="M433.53,582.5 C465.38,582.5 500.53,582.5 536.28,582.5" fill="none" id="Sale-Vehicle" style="stroke:#181818;stroke-width:1;"/><polygon fill="#000000" points="461,571.0664,451.9549,568.1275,451.9549,574.0053,461,571.0664" style="stroke:#000000;stroke-width:1;"/><text fill="#000000" font-family="sans-serif" font-size="13" lengthAdjust="spacing" textLength="53.5742" x="465" y="575.5669">involves</text><text fill="#000000" font-family="sans-serif" font-size="13" lengthAdjust="spacing" textLength="23.0356" x="441.9928" y="594.9935">0..*</text><text fill="#000000" font-family="sans-serif" font-size="13" lengthAdjust="spacing" textLength="8.271" x="520.6007" y="579.3738">1</text></g><!--reverse link Inventory to Vehicle--><g class="link" data-entity-1="Inventory" data-entity-2="Vehicle" data-source-line="87" data-uid="lnk15" id="link_Inventory_Vehicle"><path codeLine="87" d="M821.5,387.82 C821.5,421.12 821.5,449.11 821.5,484.94" fill="none" id="Inventory-backto-Vehicle" style="stroke:#181818;stroke-width:1;"/><polygon fill="none" points="821.5,375.82,817.5,381.82,821.5,387.82,825.5,381.82,821.5,375.82" style="stroke:#181818;stroke-width:1;"/><polygon fill="#000000" points="826.5,451.5664,829.4389,442.5213,823.5611,442.5213,826.5,451.5664" style="stroke:#000000;stroke-width:1;"/><text fill="#000000" font-family="sans-serif" font-size="13" lengthAdjust="spacing" textLength="59.8584" x="835.5" y="451.0669">manages</text><text fill="#000000" font-family="sans-serif" font-size="13" lengthAdjust="spacing" textLength="8.271" x="813.1294" y="395.3537">1</text><text fill="#000000" font-family="sans-serif" font-size="13" lengthAdjust="spacing" textLength="23.0356" x="797.6194" y="473.9809">0..*</text></g><!--link Vehicle to VehicleStatus--><!--SRC=[jLPDRzim3BtxLmYvp5cTehi6mu1yOGsGTiLIz3BieCYiBKIH0abEvtNxxwCKVyakkajxYIsAZ-HxeXYRFPT7gkc1C46DcLch-Qwmi6PARlbl85TH1B8ua0V8EHEmjTGMXZn7XCmUPklDRBvPuVlsssQ9ZxlLxN9z-pNw6qLqPwocp9xZrd0Fd93JURLEfsIB2MNchGUwXz2WKX21fGIgfuHBwrT7pHaYKbNi1A3beauJ3n8aGVGa39sqSPCmwDX7VQx9_2KPs2LOoeM9nvtABaXnJAcjv75R9yLJlu68rXgew6GwgxEWkb86fLugfKrBSgVIScjB0K4wHBmPoIJCcWnJZcicxy3zNXTiNx5dTDUdwemwKmjwf8pRCZXj3tr36VhfavTplwSQYy9OTO2w7LYrxDqKIG-XHd30Gi86gP3nC4GIu9CGt91RDBWUFzoxHVpGkd9nUcOD6JSMo-W9SLTebbC3rxYhTEcsD_ZQ4N2XfCKh5qjuMWK5Le46aYsv1kQ2UUqk24tJLeHfuzOjHCD1dU1_NWORXkNpqhFkIZTk_MjUCo5gasb8DQLkQJC23HtCFsTQ8lCfSR_UP9MbucumvboSE8oGzE3ZYY1JElNk_KvqtY_sBwE25G93tBlaRhEJkKAQUUcI31ckvGbaU0ZDJ6wQVdW4h_lK1t23rphktkrkrpnoWNqsBwihPloZTy-6NVPwuXE79ppHBiqFI347pIsL3CXtGA6uaYRdHqFY1z2MetxZgFw_-_ndCd73EZJumULYpOnHZ9z342fJCiiol3AL8RxXlo0bWfQgiDWBX6d0cWabcURfE1fs_kZJY2XCCBgwlFmuQgV954UYf1aOygL1UUVMr_Vcb1m5PTxDhwkzYUPPRYSUKHDn8_IanCaxjyVUgw3rRWj0tjSyJK4ImUNUyTe378dDWVXF3Od7xLSrsBTM57w1J7xaFiPF0OzOMRNv3m00]--></g></svg>